{"title":"WWE SuperStars 12 11 2015 NetworkRip Fightlive -={SPARROW}=-","uid":12970760,"size":667065703,"categoryP":"video","categoryS":"tv_shows","magnet":"?xt=urn:btih:11f08ec896f0919f9c09931b194d4ed2d15436f7&amp;dn=WWE+SuperStars+12+11+2015+NetworkRip+Fightlive+-%3D%7BSPARROW%7D%3D-&amp;tr=udp%3A%2F%2Ftracker.leechers-paradise.org%3A6969&amp;tr=udp%3A%2F%2Fzer0day.ch%3A1337&amp;tr=udp%3A%2F%2Fopen.demonii.com%3A1337&amp;tr=udp%3A%2F%2Ftracker.coppersurfer.tk%3A6969&amp;tr=udp%3A%2F%2Fexodus.desync.com%3A6969","seeders":0,"leechers":1,"uploader":"CenaCme","files":2,"time":1449944749,"description":"Format                                  : MPEG-4\r\nFormat profile                          : Base Media\r\nCodec ID                                : isom\r\nFile size                                : 636 MiB\r\nDuration                                : 49mn 58s\r\nOverall bit rate mode                    : Variable\r\nOverall bit rate                        : 1 780 Kbps\r\nWriting application                      : Lavf56.19.101\r\n\r\nVideo\r\nID                                      : 1\r\nFormat                                  : AVC\r\nFormat/Info                              : Advanced Video Codec\r\nFormat profile                          :   \r\nFormat settings, CABAC                  : Yes\r\nFormat settings, ReFrames                : 3 frames\r\nCodec ID                                : avc1\r\nCodec ID/Info                            : Advanced Video Coding\r\nDuration                                : 49mn 57s\r\nBit rate mode                            : Variable\r\nBit rate                                : 1 680 Kbps\r\nMaximum bit rate                        : 2 125 Kbps\r\nWidth                                    : 960 pixels\r\nHeight                                  : 540 pixels\r\nDisplay aspect ratio                    : 16:9\r\nFrame rate mode                          : Constant\r\nFrame rate                              : 29.970 fps\r\nColor space                              : YUV\r\nChroma subsampling                      : 4:2:0\r\nBit depth                                : 8 bits\r\nScan type                                : Progressive\r\nBits/(Pixel*Frame)                      : 0.108\r\nStream size                              : 600 MiB (94%)\r\n\r\nAudio\r\nID                                      : 2\r\nFormat                                  : AAC\r\nFormat/Info                              : Advanced Audio Codec\r\nFormat profile                          : LC\r\nCodec ID                                : 40\r\nDuration                                : 49mn 58s\r\nBit rate mode                            : Constant\r\nBit rate                                : 93.5 Kbps\r\nChannel(s)                              : 2 channels\r\nChannel positions                        : Front: L R\r\nSampling rate                            : 48.0 KHz\r\nCompression mode                        : Lossy\r\nStream size                              : 33.4 MiB (5%)\r\n\r\nText\r\nID                                      : 1-CC1\r\nFormat                                  : EIA-608\r\nMuxing mode                              : SCTE 128 / DTVCC Transport\r\nMuxing mode, more info                  : Muxed in Video #1\r\nDuration                                : 49mn 57s\r\nBit rate mode                            : Constant\r\nStream size                              : 0.00 Byte (0%)\r\nEncoded stream size                      : 0.00 Byte (0%)\r\n\r\n\r\nThumb sheet:\r\n \nhttp://extraimago.com/image/X8h","torrent":{"xt":"urn:btih:11f08ec896f0919f9c09931b194d4ed2d15436f7","amp;dn":"WWE+SuperStars+12+11+2015+NetworkRip+Fightlive+-%3D%7BSPARROW%7D%3D-","amp;tr":["udp%3A%2F%2Ftracker.leechers-paradise.org%3A6969","udp%3A%2F%2Fzer0day.ch%3A1337","udp%3A%2F%2Fopen.demonii.com%3A1337","udp%3A%2F%2Ftracker.coppersurfer.tk%3A6969","udp%3A%2F%2Fexodus.desync.com%3A6969"],"infoHash":"11f08ec896f0919f9c09931b194d4ed2d15436f7","infoHashBuffer":{"type":"Buffer","data":[17,240,142,200,150,240,145,159,156,9,147,27,25,77,78,210,209,84,54,247]},"announce":[],"urlList":[]}}